<svg width="64" height="64" viewBox="0 0 64 64" fill="none" xmlns="http://www.w3.org/2000/svg">
<path d="M13.6094 43.2606H9.49459L8.64089 45.3865H6.6781L10.6841 35.8835H12.4305L16.4105 45.3865H14.4607L13.6094 43.2606ZM12.9602 41.6371L11.552 38.1041L10.1449 41.6371H12.9602Z" fill="black"/>
<path d="M17.4911 45.3865V35.8835H19.0886L23.2589 41.9079V35.8835H25.0455V45.3865H23.4209L19.2518 39.4296V45.3865H17.4911Z" fill="black"/>
<path d="M28.6944 45.3865H26.935V35.8835H28.6956V45.3865H28.6944Z" fill="black"/>
<path d="M34.5959 44.1415L32.3482 39.7962V45.3878H30.5887V35.8848H32.2938L35.3266 41.8145L38.3583 35.8848H40.0645V45.3878H38.2909V39.7962L36.0432 44.1415H34.5959Z" fill="black"/>
<path d="M48.0751 43.2606H43.9592L43.1055 45.3865H41.1427L45.1487 35.8835H46.8951L50.8751 45.3865H48.9253L48.0751 43.2606ZM47.4248 41.6371L46.0166 38.1041L44.6095 41.6371H47.4248Z" fill="black"/>
<path d="M53.7154 43.7891H57.5878V45.3865H51.956V35.8835H53.7166V43.7891H53.7154Z" fill="black"/>
<path d="M6.12842 51.6674V50.0972H13.6V51.6674H10.7445V59.6002H8.98511V51.6674H6.12842Z" fill="black"/>
<path d="M20.6649 58.0027V59.6002H14.6134V50.0972H20.6649V51.6674H16.374V54.0228H19.8396V55.593H16.374V58.0027H20.6649Z" fill="black"/>
<path d="M24.8576 59.8177C23.3276 59.8177 21.7857 58.938 21.4736 57.1644L23.2342 56.7317C23.3288 57.7474 24.1671 58.1943 24.9392 58.1943C25.6557 58.1943 26.293 57.8148 26.293 57.084C26.293 56.2989 25.5753 55.9607 24.6956 55.6214C23.4234 55.1342 21.8791 54.6329 21.8791 52.6701C21.8791 50.7617 23.3418 49.895 24.7902 49.895C25.9821 49.895 27.2685 50.4768 27.7013 51.7218L26.1713 52.3982C25.9679 51.749 25.3731 51.4913 24.8718 51.4913C24.2629 51.4913 23.6941 51.8566 23.6941 52.5472C23.6941 53.3181 24.3846 53.6432 25.2513 53.9684C26.4964 54.4284 28.0536 54.9025 28.0536 56.8511C28.0525 58.8281 26.468 59.8177 24.8576 59.8177Z" fill="black"/>
<path d="M28.4557 51.6674V50.0972H35.9274V51.6674H33.0719V59.6002H31.3113V51.6674H28.4557Z" fill="black"/>
<path d="M38.7001 59.6002H36.9395V50.0972H38.7001V59.6002Z" fill="black"/>
<path d="M40.593 59.6002V50.0972H42.1905L46.3608 56.1215V50.0972H48.1474V59.6002H46.5228L42.3536 53.6432V59.6002H40.593Z" fill="black"/>
<path d="M57.8621 59.6002H56.5626L56.2919 58.5987C55.6959 59.411 54.7618 59.8177 53.7201 59.8177C51.7301 59.8177 49.4966 58.3421 49.4966 54.9581C49.4966 51.723 51.541 49.895 53.9495 49.895C55.6817 49.895 57.1586 50.8291 57.7261 52.5341L56.1157 53.1431C55.8307 52.1286 54.951 51.5859 53.9767 51.5859C52.5153 51.5859 51.3376 52.7635 51.3376 54.8895C51.3376 57.2176 52.7447 58.1115 53.9637 58.1115C55.087 58.1115 56.0743 57.3406 56.1701 56.0944H53.6788V54.5241H57.8621V59.6002Z" fill="black"/>
<path d="M43.2652 12.9308C43.2652 12.9308 38.6196 2.54453 33.9727 6.23481C27.4636 11.4043 43.9487 29.8758 43.9487 29.8758C43.9487 29.8758 59.191 8.90941 51.3281 5.41541C46.4081 3.22796 43.2652 12.9308 43.2652 12.9308Z" fill="black"/>
<path d="M10.3979 29.7695V5.40015H14.495L25.1875 20.8483V5.40015H29.7693V29.7695H25.6037L14.9124 14.4952V29.7695H10.3979Z" fill="black"/>
<path d="M64 64H0V0H64V64ZM1.69202 62.3092H62.3092V1.69202H1.69202V62.3092Z" fill="black"/>
</svg>
