<svg width="100" height="64" viewBox="0 0 100 64" fill="none" xmlns="http://www.w3.org/2000/svg">
<g clip-path="url(#clip0)">
<path d="M33.3552 52.7024C19.3067 49.9892 10.5804 39.9369 10.5804 26.4677C10.5804 19.4161 13.3417 12.7731 18.3552 7.7613C23.3612 2.75557 29.9857 0 37.0107 0C51.5003 0 63.3326 11.8727 63.3868 26.4662C63.3868 32.4056 61.8707 36.2355 59.0718 41.2261L58.5524 40.9311C61.3016 36.0298 62.7906 32.2724 62.7906 26.4662C62.7364 12.2041 51.1721 0.599235 37.0107 0.599235C22.7665 0.599235 11.1766 12.2041 11.1766 26.4677C11.1766 39.6312 19.7177 49.4581 33.4666 52.1138L33.3552 52.7024Z" fill="#008375"/>
<path d="M45.6467 10.5275C45.3606 10.1189 44.7659 9.75725 44.0462 9.55599L42.4277 9.35625L42.2983 9.3396H42.2922C40.6662 9.44855 39.5943 9.77238 38.3612 10.187C36.5395 10.8453 35.207 11.4732 33.9092 12.2889C31.7638 13.6477 30.1423 15.1549 29.0974 16.7665C28.5118 17.5155 27.2757 19.3995 28.4109 20.7387C29.1321 21.6224 30.201 21.8887 31.2805 21.8887C32.3495 21.8887 33.4259 21.6269 34.1817 21.4438C36.6554 20.7856 37.9622 19.9881 39.2239 19.2164C39.5551 19.0136 39.8954 18.8048 40.2507 18.6066C41.0712 18.1027 41.6373 17.4656 42.1492 16.8225C42.235 16.7831 42.3178 16.7438 42.4037 16.7075C42.9532 16.4563 43.4726 16.2202 43.8038 15.8797C44.2103 15.4091 44.6424 14.8235 45.0233 14.2349C46.023 12.8533 46.2338 11.6094 45.6467 10.5275ZM45.0791 12.7655C45.0444 12.8926 45.0218 12.9713 45.0173 13.0197C44.3699 14.0775 43.8234 14.6646 43.1775 15.3229L43.176 15.3244C42.8689 15.6588 42.5888 16.0159 42.3209 16.3609C42.2335 16.4729 42.1447 16.5879 42.0544 16.7014C41.6479 16.8891 41.2173 17.107 40.8243 17.3884C38.9905 18.6837 38.0179 19.2315 36.0893 20.0471C34.8126 20.598 32.9984 21.0807 31.5846 21.2517C30.9658 21.2517 30.5187 21.1488 30.0429 20.9959C29.6244 20.8355 29.2796 20.6766 28.9333 20.2408C28.8385 19.973 28.7376 19.6234 28.7361 19.4252C28.5931 18.3977 29.3549 17.4081 30.1634 16.3609C30.2387 16.2641 30.3139 16.1657 30.3877 16.0689C31.1827 15.0475 32.759 13.5721 34.4919 12.5779L34.5386 12.5522C35.9147 11.7819 37.214 11.0526 39.1697 10.4896C39.3443 10.4473 39.5175 10.4049 39.6951 10.3595C40.1965 10.2309 40.7144 10.0992 41.2895 10.0175L41.6027 10.0735L41.6147 10.0705C41.9159 10.0175 43.307 10.0599 43.9168 10.2067C44.7855 10.5517 45.2537 11.1857 45.2341 11.9953C45.2311 12.2238 45.1438 12.537 45.0791 12.7655Z" fill="#008375"/>
<path fill-rule="evenodd" clip-rule="evenodd" d="M67.1071 50.5067C68.2453 49.9877 69.6425 49.4807 70.6964 48.5849C72.4699 47.2245 70.5895 44.5461 68.7617 45.6478C66.9882 46.6525 68.9665 48.0674 68.5464 48.8013C68.4501 48.8981 68.3959 49.2659 68.1806 49.3733C67.8252 49.6321 67.2456 49.741 66.9882 49.741C65.3651 49.6865 64.5807 46.3832 67.2456 44.817C68.3417 44.1799 70.329 43.9741 71.8873 44.3418C73.1986 44.6551 74.1863 45.4979 74.5521 46.5996C74.659 46.8583 74.6063 47.4424 74.5521 47.907C74.5521 49.225 74.391 50.9531 74.3368 52.4209C74.2932 54.3533 74.6048 55.6168 76.69 54.7755C76.69 54.721 76.8948 54.4078 76.8948 54.0945C77.0559 52.3664 77.1628 47.8086 77.0559 47.4424C76.8511 46.9673 75.3365 46.9128 75.594 45.8657C75.7987 45.1847 76.5831 44.764 77.7861 44.3434C78.2046 44.1376 78.7753 43.8243 79.4513 43.9227C79.6665 43.9227 80.0309 43.9772 80.1815 44.1814C80.3968 44.5053 80.3968 45.0243 80.3968 45.3905C81.1812 44.9154 81.3859 44.2889 82.3736 44.0301C82.9969 43.8243 83.9966 43.9756 84.8231 44.3434C85.457 44.6566 85.9734 45.2831 86.2308 45.7582C86.3919 46.1789 86.4461 47.0762 86.4461 47.7557C86.5003 49.225 86.3919 50.7897 86.3392 52.5722C86.3392 53.3062 86.1887 53.9432 86.3392 54.5167C86.5003 55.1432 87.5964 54.9374 87.8011 55.5109C87.908 55.8242 87.908 56.5157 87.908 56.5157H82.2667C82.2667 56.5157 82.223 55.8786 82.2667 55.6199C82.3736 55.2522 82.9005 55.1447 83.2122 54.886C83.2664 54.8315 83.3191 54.6272 83.3191 54.5182V54.205C83.3191 53.8918 83.2649 53.6754 83.3191 53.2653C83.3612 52.0562 83.3612 51.743 83.4154 50.1118C83.5223 48.4926 83.4696 47.3365 82.8463 46.8614C82.5889 46.6026 82.3736 46.4936 81.8045 46.6026C80.0309 46.9703 80.0309 48.5895 80.0309 50.3281C80.0309 52.3695 79.8156 53.7299 80.1273 54.5182C80.2883 54.8315 80.9117 54.9389 81.3302 55.1447C81.5877 55.2522 81.803 55.5124 81.803 55.5124C81.803 55.5124 81.9535 56.1934 81.803 56.5596C79.1381 56.5596 76.7954 56.5172 75.4856 56.5596C73.712 56.5596 73.1971 56.5596 72.7244 56.4627C72.1011 56.2463 72.0469 55.9876 71.6825 55.8801C70.9523 55.6743 68.5449 57.1437 66.8798 56.5611C65.6331 56.0965 64.7418 55.4171 64.4302 54.0991C64.0116 52.1591 65.3335 51.3375 67.1071 50.5067ZM67.7831 53.9947C68.0089 54.3185 68.2769 54.4804 68.7497 54.5243C69.3519 54.6 70.061 54.5137 70.5865 53.7253C71.1556 52.9914 71.3167 51.5765 71.3167 50.4749C71.005 50.8426 70.6934 50.9501 70.3606 51.0575C69.7373 51.3163 68.9635 51.7808 68.6307 51.976C68.3085 52.2348 67.8057 52.5919 67.5798 53.229C67.5919 53.4666 67.6551 53.8116 67.7831 53.9947Z" fill="#008375"/>
<path fill-rule="evenodd" clip-rule="evenodd" d="M53.4397 52.3H53.4292C53.0106 51.8354 52.699 51.0471 52.3873 50.2042C52.1826 49.4703 52.2262 47.9041 53.0648 46.4786C53.7423 45.4845 54.9453 44.3828 56.353 44.0166C57.449 43.7034 58.1792 43.6489 58.7062 43.6489C59.5869 43.7034 60.0597 43.9077 61.1558 44.0166C61.3605 43.4991 62.1976 42.3975 62.7667 42.2885C64.2286 41.9208 65.9043 43.596 67.6779 42.0298C67.7742 42.6018 67.5168 43.1314 67.0982 43.7579C66.6797 44.4388 66.3138 44.6976 65.6905 44.805C64.5945 45.0108 63.0257 43.1314 62.306 44.233C62.038 44.6431 62.306 44.914 62.6719 45.1727C63.3915 45.6479 64.2843 46.3818 64.6487 47.1596C65.1756 48.3687 65.2178 49.0496 65.0145 49.9454C64.8534 50.4645 64.6487 50.9926 64.2843 51.5116C64.0269 51.8354 63.7574 52.2032 63.393 52.5164C63.0272 52.7752 62.5665 52.981 62.3075 53.2503C61.9853 53.5635 61.9417 53.671 61.9417 54.0387C61.9417 54.2975 62.3497 54.4488 62.7697 54.5033C63.393 54.6652 63.9727 55.0329 64.4454 55.6049C64.9603 56.3388 65.1756 56.9653 65.2193 57.7007C65.2735 58.2303 65.2735 58.5965 64.8534 59.5907C64.596 60.3246 64.0796 61.113 63.4999 61.685C61.362 63.7914 59.3852 64.3634 56.6661 63.7914C56.0428 63.684 54.3777 62.8956 53.5933 62.0527C52.5936 61.0056 52.443 59.7526 52.3903 59.5907C52.2834 58.9642 52.3361 57.7552 52.8631 56.6535C53.3253 55.7138 54.1639 55.0344 54.8399 54.6667C56.3018 53.9328 59.1157 54.7212 59.5358 56.4493C59.6427 56.9244 59.1699 57.9186 58.7077 58.026C58.4924 58.1229 57.9775 58.3393 57.5047 58.026C57.0862 57.7567 56.8272 57.0757 56.1512 57.1302C55.6243 57.1847 55.2057 57.389 54.8399 58.026C54.2708 59.2245 55.5701 61.169 57.3979 61.4822C58.7514 61.688 59.9016 61.1145 60.7929 60.3261C61.889 59.279 62.4039 58.026 61.621 56.6535C60.8908 55.6064 59.4831 54.9254 58.2365 54.5048C56.5171 54.0402 54.7872 53.8783 53.4337 52.3015H53.4397V52.3ZM56.2431 49.2645C56.2431 50.7338 56.0383 52.353 57.3933 52.9356C57.705 53.0324 57.973 53.1414 58.3388 53.1414C58.6505 53.1414 58.9079 53.0339 59.1669 52.9356C60.5204 52.353 60.3172 50.7323 60.3172 49.2645C60.3172 47.9465 60.6288 46.4787 59.5328 45.8522C59.1669 45.6464 58.8025 45.4845 58.3403 45.4845C57.9218 45.4845 57.6101 45.7009 57.2879 45.8522C56.1467 46.5331 56.2431 47.9041 56.2431 49.2645Z" fill="#008375"/>
<path fill-rule="evenodd" clip-rule="evenodd" d="M46.2728 50.4627H44.725C44.725 52.6659 44.9403 54.1337 47.0782 54.6634C47.5405 54.8147 48.0132 54.6634 48.3249 54.5015C49.3246 54.1882 50.2053 52.6659 51.2366 52.7734C51.4941 52.8278 51.7636 53.0866 51.7094 53.2485C50.2053 57.2328 45.8753 58.1196 42.8446 54.5015C42.3824 53.9839 41.7591 52.7189 41.4911 51.413C41.1252 49.7817 41.3947 48.0552 41.8027 47.1578C42.5329 45.6461 43.5326 44.5445 44.8334 44.0149C45.4568 43.7561 46.1343 43.5503 46.9187 43.5503C47.9078 43.5503 49.0024 44.0693 49.6377 44.3281C51.3992 45.3752 52.6458 48.4213 51.7109 50.4627H46.2728ZM48.5387 48.6816C49.0009 47.2668 48.1728 45.2799 46.7124 45.2799C45.252 45.2799 44.725 47.4287 44.8319 48.6816H46.196H48.5387Z" fill="#008375"/>
<path fill-rule="evenodd" clip-rule="evenodd" d="M49.528 32.0729C48.5404 32.3301 45.3606 31.9654 43.5329 33.2819C42.0709 34.2201 41.4371 35.7863 41.4913 37.4614C41.4913 38.3588 41.8557 39.3515 42.071 40.2488C42.8027 36.8365 43.9951 34.9465 47.6476 34.6438C47.3359 35.7878 46.401 35.8968 45.198 37.4614C43.575 39.3515 42.8448 40.3456 41.4913 42.3976C40.2974 44.1801 39.933 45.0215 39.245 46.5862C39.245 46.5862 39.0944 46.9539 38.8791 47.429C38.7286 47.7423 38.5675 48.2598 38.2016 48.3142C38.2016 41.3928 35.7521 39.2425 38.7828 32.5465C39.8261 29.9771 39.9752 30.1829 40.3953 28.6712C40.4931 28.3065 40.5759 27.907 40.6437 27.4878C41.1074 24.593 40.8695 20.7449 40.8695 20.7449C41.3965 20.8523 42.223 21.8465 42.6431 22.4836C42.3856 21.4364 42.5889 20.8539 43.1158 19.2771C44.2646 19.439 43.7918 20.5936 44.3624 22.1159L44.8352 18.2284C46.404 17.9697 47.2847 17.8607 48.6924 18.1316C47.7033 17.3447 46.8662 17.0844 46.6072 16.0252C48.176 16.0252 48.9062 16.1871 50.7746 15.5621C48.9062 14.406 48.2287 13.9854 48.0676 13.6721C49.9722 12.8429 50.8559 12.118 51.8662 10.6926C51.4386 11.2374 50.0776 11.5763 49.5295 11.5763C49.6906 10.4747 51.2926 9.52439 52.2802 9.11279C49.5295 9.05831 49.7343 9.42603 48.0691 9.6863C48.435 7.59049 49.0026 6.54334 50.0038 5.8518C48.8008 6.32695 47.908 7.59049 46.5018 7.68734C46.6629 6.91106 47.1778 5.59153 47.759 5.22382C47.759 5.16934 47.7048 5.07401 47.6521 5.01953C47.6521 5.01953 44.51 7.12593 43.03 8.48632C43.0315 8.48783 43.033 8.48934 43.033 8.49086H43.0255C43.027 8.48934 43.0285 8.48783 43.03 8.48632C42.9156 8.26993 42.7138 7.88103 42.753 7.84925C42.753 6.8021 42.5919 6.21951 43.2152 5.33277C42.4413 5.70048 40.9794 7.53602 40.7641 8.16249C40.7641 8.16249 39.6681 6.43439 38.7873 5.8518C38.4757 5.59304 38.1535 5.646 37.7454 5.59304C38.2604 6.49038 37.896 7.85076 37.5302 8.89791C36.5952 8.79047 35.5533 7.95972 35.0264 7.27725C35.2417 8.27144 35.6497 9.15667 35.2838 10.2598C34.5115 10.054 33.9845 9.3201 34.1456 8.32592C33.307 9.05983 33.5645 9.8921 33.2001 11.1012C31.8466 10.8424 30.9538 10.2598 30.4931 9.1143C30.1273 10.7879 30.332 11.7821 30.7506 13.4663C29.0312 13.5102 27.4082 13.4663 26.7849 12.0409C26.4733 13.4663 27.2577 14.1473 27.7184 15.5606C26.6765 15.8194 26.5802 15.9283 25.9448 16.1326C25.6633 16.2279 25.3892 16.3354 25.1243 16.4489C23.9168 16.9634 22.8614 17.605 21.8843 17.8607C22.6145 18.1739 24.2254 18.1739 24.903 18.1301L21.5184 21.5318C23.5796 20.9053 22.2291 20.5436 25.1243 20.4907C25.3682 20.4861 25.6392 20.4846 25.9448 20.4846L25.1243 21.3941L22.2486 24.5779C23.3612 23.9196 24.2089 23.5292 25.1243 23.3038C25.6663 23.1706 26.2309 23.0949 26.8918 23.0541C26.8376 23.7335 25.2161 25.7854 25.5805 27.1458C26.3122 25.678 28.7196 24.4689 30.18 24.2087C29.9647 26.0987 29.5461 26.7796 29.2345 26.9294C31.5877 26.4119 31.7924 24.6293 33.1023 24.36C33.307 25.2013 33.6187 25.6235 33.7798 26.5632C34.5521 24.0468 35.3922 22.8922 35.7566 22.6864C36.0682 23.9923 35.7566 24.7277 35.6497 25.9912C37.2185 24.5764 37.476 24.6309 38.313 22.4821C38.6352 22.5577 38.8731 22.6107 39.108 22.6985C39.3233 22.7741 39.5476 22.871 39.8292 23.0556C39.8292 24.8926 39.7494 26.2742 39.4302 27.4878C39.3775 27.6921 39.3173 27.8918 39.248 28.087C38.8385 29.4035 38.1504 30.5491 37.7439 31.5962C36.9595 33.3879 36.4853 35.0524 36.1224 37.2012C35.6497 39.5103 36.9053 46.8979 36.3377 46.6921C36.2308 46.6921 36.1766 46.8979 35.9719 46.4757C35.7039 45.7418 35.6497 45.4285 35.3907 44.5978C35.0249 43.2253 34.659 42.6003 33.7783 40.9267C29.2857 33.2804 24.2254 32.0169 23.4425 31.92C23.968 32.6963 24.9572 33.2804 25.579 33.9614C28.4049 36.8879 28.9755 37.988 29.4468 38.7235C32.2622 42.9665 33.2513 45.3756 34.3474 49.8365C34.6575 51.4133 35.0776 53.1414 35.2387 54.7167C35.2823 55.2357 35.3892 55.8713 35.3892 56.2829H39.6124C39.6124 53.0325 40.0309 49.8366 41.127 46.8434C41.547 45.5905 42.2757 44.3284 42.8463 43.1814C43.1685 42.6533 43.6292 41.8104 44.1035 41.184C44.3609 40.8722 44.7268 40.7103 44.8352 40.4501C45.7265 40.8178 46.5003 40.612 47.3916 40.3426C48.3266 40.0839 48.6397 39.9204 49.0041 39.5542C49.3263 39.2955 49.7358 39.0367 50.2085 38.1394C51.142 36.1525 50.6286 34.8345 51.3468 33.0201C51.9701 31.4434 52.8072 30.9682 53.2272 29.6078C51.8602 31.0787 49.8939 31.9639 49.528 32.0729ZM39.0944 21.7255C38.697 21.5197 38.2995 21.3578 37.9457 21.326C37.7409 22.6864 37.3224 22.9996 36.4838 23.9923C36.4838 22.5245 36.6449 21.9509 36.4838 21.0657C35.4419 21.4758 35.0234 22.1129 34.6033 23.1615C34.1426 23.9923 34.0884 23.7335 33.8731 24.0997C33.7768 23.3113 33.4531 23.0526 33.4109 22.2097C32.628 22.5229 32.8298 24.0997 30.8545 25.05C31.0577 24.6823 30.9493 24.0997 30.9493 22.6849L27.2546 24.4674C27.7154 23.3113 28.4471 22.4806 28.554 22.0039L25.1589 22.5774C25.8454 22.0584 26.255 21.3245 26.5229 20.9568C27.1462 20.2758 27.3073 20.1139 27.3495 19.8007H24.1155L25.1213 19.1636L28.0812 17.2857C26.8752 17.4854 26.2519 17.5414 25.1213 17.5444H25.0083C25.0475 17.5263 25.0851 17.5081 25.1213 17.4885C25.9433 17.0814 26.5651 16.6411 27.5106 16.29C28.1339 16.0206 28.4456 16.0206 29.23 15.7074C28.4471 15.3397 27.9833 14.8751 27.7154 13.9248C28.6082 14.2366 30.4344 14.2366 31.5832 13.6661C31.4221 12.6719 30.9072 12.1438 31.2173 11.257C32.5181 11.3539 32.6265 11.9924 33.8716 12.2512C33.8716 11.5703 34.0327 11.0406 34.1396 10.4157C34.8156 10.6729 35.1273 10.9877 35.859 10.9877C36.1164 10.2008 36.1164 9.7892 36.1164 9.10825C36.3317 9.51985 37.4699 9.995 37.9427 10.048C37.9427 9.10825 38.307 8.47118 38.6729 7.00185C39.2435 7.36956 40.0264 8.47118 40.1875 9.46537C40.8981 9.4003 41.8963 8.48329 41.8963 8.48329L42.3133 9.27168V9.29438C42.3073 9.30951 42.3013 9.32313 42.2953 9.33675C42.2757 9.38668 42.2682 9.42905 42.2727 9.46537L42.4248 9.35339L45.9056 6.78697C46.002 6.78697 45.8198 6.79908 45.9267 6.90652C45.5609 7.3166 45.1965 8.94634 45.1965 9.57281C45.3034 9.57281 47.6461 8.00663 47.753 7.84471C47.5919 9.05377 47.077 9.68025 46.6042 10.8893L49.6334 9.94052C48.9032 10.8893 47.8072 11.885 46.4958 12.1438C46.7638 12.7264 47.6988 12.51 48.7948 12.51C47.3329 13.0941 46.9686 13.1364 45.9252 13.5586C46.2911 13.8719 46.9686 13.8719 48.6879 15.1884C46.8617 15.5016 46.55 15.1339 45.1965 14.972C45.3034 15.9223 45.722 16.5487 46.6042 17.2827C45.3576 17.4885 44.9391 17.0239 43.7888 16.8605C43.9394 17.7033 44.2616 17.8531 43.7888 18.5886C43.0059 18.2753 42.479 18.4372 41.5982 18.5886C41.7051 19.1182 42.22 19.4314 42.0694 20.2728C41.3392 19.9595 41.0276 19.5389 40.2959 19.4314C39.9315 19.9595 39.9737 21.214 39.8246 22.1083C39.5988 21.9857 39.3534 21.845 39.0944 21.7255Z" fill="#008375"/>
<path d="M86.0651 42.9163H86.6402V44.4628H86.9473V42.9163H87.524V42.6333H86.0651V42.9163Z" fill="#008375"/>
<path d="M89.0447 42.6333L88.6187 43.8802C88.5961 43.9453 88.578 44.0013 88.5615 44.0497C88.5479 44.0073 88.5313 43.9574 88.5133 43.9029L88.0917 42.6348H87.6792V44.4658H87.9773V43.1629L88.4169 44.4658H88.6789L89.1215 43.1841V44.4658H89.4196V42.6348H89.0447V42.6333Z" fill="#008375"/>
</g>
<defs>
<clipPath id="clip0">
<rect width="100" height="64" fill="white"/>
</clipPath>
</defs>
</svg>
