<?xml version="1.0" standalone="no"?>
<!DOCTYPE svg PUBLIC "-//W3C//DTD SVG 20010904//EN"
 "http://www.w3.org/TR/2001/REC-SVG-20010904/DTD/svg10.dtd">
<svg version="1.0" xmlns="http://www.w3.org/2000/svg"
 width="512.000000pt" height="512.000000pt" viewBox="0 0 512.000000 512.000000"
 preserveAspectRatio="xMidYMid meet">
<metadata>
Created by potrace 1.11, written by Peter Selinger 2001-2013
</metadata>
<g transform="translate(0.000000,512.000000) scale(0.100000,-0.100000)"
fill="#000000" stroke="none">
<path d="M2186 4935 c-14 -13 -26 -31 -26 -40 0 -25 -68 -126 -114 -168 -23
-22 -72 -54 -110 -72 -82 -41 -100 -63 -92 -110 6 -30 20 -44 110 -105 111
-75 157 -123 199 -206 18 -35 36 -55 56 -64 52 -21 76 -7 122 71 23 40 51 83
63 97 18 21 111 90 180 135 97 61 88 122 -27 180 -96 48 -166 118 -213 214
-48 97 -94 118 -148 68z"/>
<path d="M4157 4755 c-1 -2 -31 -5 -67 -8 -186 -17 -450 -125 -545 -224 -15
-15 -40 -55 -55 -87 -23 -51 -27 -71 -25 -130 3 -64 16 -101 133 -394 l130
-322 7 -183 c4 -100 8 -204 10 -232 6 -94 15 -210 20 -245 2 -19 7 -60 10 -90
4 -30 8 -66 10 -80 2 -14 11 -77 20 -140 9 -63 31 -182 48 -265 l31 -150 6
-900 5 -900 26 -56 c35 -74 84 -123 158 -158 54 -25 72 -29 139 -27 126 4 224
67 282 182 l25 49 3 505 c6 1293 6 1286 30 1400 30 145 30 149 53 290 28 177
29 189 35 250 4 30 8 69 9 85 2 17 6 66 10 110 4 44 8 96 10 115 2 19 7 125
10 235 l7 200 74 190 c41 105 79 199 84 210 5 11 23 56 40 100 17 44 38 96 47
115 22 47 25 154 6 210 -30 89 -110 165 -248 233 -124 61 -300 104 -453 110
-45 2 -83 3 -85 2z"/>
<path d="M2762 4228 c-14 -7 -36 -39 -56 -82 -43 -92 -114 -164 -213 -213 -83
-42 -98 -60 -88 -109 5 -30 19 -43 108 -103 110 -75 155 -121 202 -209 24 -44
37 -58 63 -66 48 -13 74 3 111 73 42 79 105 142 207 209 92 60 111 86 98 134
-8 26 -23 39 -87 72 -105 56 -160 109 -208 203 -54 104 -77 119 -137 91z"/>
<path d="M1878 3746 c-10 -7 -34 -45 -54 -84 -46 -93 -117 -163 -209 -207 -55
-27 -76 -43 -85 -65 -22 -54 -8 -74 105 -150 106 -71 159 -127 203 -216 23
-46 66 -70 107 -60 17 4 34 23 53 57 50 93 96 142 205 218 113 77 127 97 110
148 -7 21 -27 37 -84 65 -99 49 -166 116 -215 213 -38 75 -59 95 -102 95 -9 0
-25 -7 -34 -14z"/>
<path d="M3060 2581 c-51 -28 -83 -69 -96 -123 -1 -5 -2 -199 -3 -433 l-1
-425 -24 -6 c-58 -14 -57 7 -54 -724 3 -627 4 -670 21 -687 16 -17 47 -18 370
-20 335 -3 353 -2 377 16 l25 20 3 664 c1 432 -1 674 -8 691 -6 16 -22 31 -39
37 l-30 11 -3 341 -3 342 -26 55 c-55 117 -127 173 -293 225 -123 39 -166 42
-216 16z"/>
<path d="M1318 2555 c-2 -1 -21 -5 -43 -8 -470 -65 -856 -443 -939 -922 -14
-79 -14 -307 -1 -370 25 -119 54 -214 80 -264 l16 -31 -106 0 c-59 0 -114 -4
-124 -10 -32 -17 -44 -63 -37 -152 7 -103 19 -152 55 -233 93 -205 279 -352
501 -394 61 -11 1417 -10 1460 2 256 69 433 231 506 462 31 97 42 231 24 275
-17 42 -43 50 -157 50 -86 0 -95 2 -90 17 3 10 19 56 35 103 44 128 60 232 57
378 -2 70 -6 141 -8 157 -42 239 -149 447 -317 615 -122 122 -270 215 -427
269 -57 19 -83 26 -178 46 -30 7 -301 16 -307 10z"/>
</g>
</svg>
